<svg width="24" height="24" viewBox="0 0 24 24" fill="none" xmlns="http://www.w3.org/2000/svg">
<path d="M21 7.41988V7.00247C21 6.45576 20.5552 6 20.0066 6H3.9934C3.44495 6 3 6.44882 3 7.00247V7.39177L11.4737 10.8032C11.7519 10.9153 12.317 10.9156 12.5962 10.8032L21 7.41988ZM21 9.57588L13.3431 12.6585C12.5843 12.964 11.4838 12.9633 10.7267 12.6585L3 9.54777V16.9975C3 17.5442 3.44476 18 3.9934 18H20.0066C20.5551 18 21 17.5512 21 16.9975V9.57588ZM1 7.00247C1 5.34831 2.33628 4 3.9934 4H20.0066C21.6637 4 23 5.35495 23 7.00247V16.9975C23 18.6517 21.6637 20 20.0066 20H3.9934C2.3363 20 1 18.645 1 16.9975V7.00247Z" fill="#4F9282"/>
</svg>
